# xmcd
#
# Track frame offsets:
#	150
#	9453
#	14632
#	29124
#	33609
#	45028
#	52628
#	58888
#	77127
#	93653
#	101618
#	105012
#	120300
#	134465
#	139465
#	161385
#	173047
#	178744
#
# Disc length: 2909 seconds
#
# Revision: 1
# Processed by: cddbd v1.5.2PL0 Copyright (c) Steve Scherf et al.
# Submitted via: EZCDAudioConverter 2.1.7.1
#
DISCID=e50b5b12
DTITLE=Last Poets - This Is Madness 2/2
DYEAR=1971
DGENRE=Funk
TTITLE0=True Blues
TTITLE1=Related To What Chant
TTITLE2=Related To What
TTITLE3=Black Is Chant
TTITLE4=Black Is
TTITLE5=Time
TTITLE6=Mean Machine Chant
TTITLE7=Mean Machine
TTITLE8=White Man's Got A God Complex
TTITLE9=Opposites
TTITLE10=Black People What Y'All Gon' Do Chant
TTITLE11=Black People What Y'All Gon' Do
TTITLE12=O.D.
TTITLE13=This Is Madness Chant
TTITLE14=This Is Madness
TTITLE15=Lightnin' Rod - Sport
TTITLE16=Lightnin' Rod - Spoon
TTITLE17=Lightnin' Rod and Jimi Hendrix - Doriella Du Fontaine
EXTD=
EXTT0=
EXTT1=
EXTT2=
EXTT3=
EXTT4=
EXTT5=
EXTT6=
EXTT7=
EXTT8=
EXTT9=
EXTT10=
EXTT11=
EXTT12=
EXTT13=
EXTT14=
EXTT15=
EXTT16=
EXTT17=
PLAYORDER=
